<svg width="24" height="24" viewBox="0 0 24 24" fill="none" xmlns="http://www.w3.org/2000/svg">
<path d="M4.71879 5.03021C4.6491 4.96053 4.59383 4.8778 4.55612 4.78676C4.51841 4.69571 4.49899 4.59813 4.49899 4.49958C4.49899 4.40104 4.51841 4.30346 4.55612 4.21241C4.59383 4.12137 4.6491 4.03864 4.71879 3.96896C4.78847 3.89928 4.87119 3.844 4.96224 3.80629C5.05328 3.76858 5.15087 3.74917 5.24941 3.74917C5.34796 3.74917 5.44554 3.76858 5.53658 3.80629C5.62763 3.844 5.71035 3.89928 5.78004 3.96896L13.28 11.469C13.3498 11.5386 13.4051 11.6213 13.4428 11.7124C13.4806 11.8034 13.5 11.901 13.5 11.9996C13.5 12.0981 13.4806 12.1957 13.4428 12.2868C13.4051 12.3778 13.3498 12.4606 13.28 12.5302L5.78004 20.0302C5.63931 20.1709 5.44843 20.25 5.24941 20.25C5.05039 20.25 4.85952 20.1709 4.71878 20.0302C4.57805 19.8895 4.49899 19.6986 4.49899 19.4996C4.49899 19.3006 4.57805 19.1097 4.71878 18.969L11.6891 11.9996L4.71879 5.03021ZM19.1891 11.9996L12.2188 18.969C12.0781 19.1097 11.999 19.3006 11.999 19.4996C11.999 19.6986 12.0781 19.8895 12.2188 20.0302C12.3595 20.1709 12.5504 20.25 12.7494 20.25C12.9484 20.25 13.1393 20.1709 13.28 20.0302L20.78 12.5302C20.8498 12.4606 20.9051 12.3778 20.9428 12.2868C20.9806 12.1957 21 12.0981 21 11.9996C21 11.901 20.9806 11.8034 20.9428 11.7124C20.9051 11.6213 20.8498 11.5386 20.78 11.469L13.28 3.96896C13.2104 3.89928 13.1276 3.844 13.0366 3.80629C12.9455 3.76858 12.848 3.74917 12.7494 3.74917C12.6509 3.74917 12.5533 3.76858 12.4622 3.80629C12.3712 3.844 12.2885 3.89928 12.2188 3.96896C12.1491 4.03864 12.0938 4.12137 12.0561 4.21241C12.0184 4.30346 11.999 4.40104 11.999 4.49958C11.999 4.59813 12.0184 4.69571 12.0561 4.78676C12.0938 4.8778 12.1491 4.96053 12.2188 5.03021L19.1891 11.9996Z" fill="#5700C7"/>
</svg>
