<svg width="20" height="20" viewBox="0 0 20 20" fill="none" xmlns="http://www.w3.org/2000/svg">
<path d="M10.9375 9.99667C10.9375 10.1821 10.8825 10.3633 10.7795 10.5175C10.6765 10.6717 10.5301 10.7918 10.3588 10.8628C10.1875 10.9338 9.99896 10.9523 9.8171 10.9162C9.63525 10.88 9.4682 10.7907 9.33709 10.6596C9.20598 10.5285 9.11669 10.3614 9.08051 10.1796C9.04434 9.99771 9.06291 9.80921 9.13386 9.6379C9.20482 9.4666 9.32498 9.32018 9.47915 9.21716C9.63332 9.11415 9.81458 9.05917 10 9.05917C10.2486 9.05917 10.4871 9.15794 10.6629 9.33375C10.8387 9.50957 10.9375 9.74803 10.9375 9.99667ZM6.5625 9.05917C6.37708 9.05917 6.19582 9.11415 6.04165 9.21716C5.88748 9.32018 5.76732 9.4666 5.69636 9.6379C5.62541 9.80921 5.60684 9.99771 5.64301 10.1796C5.67919 10.3614 5.76848 10.5285 5.89959 10.6596C6.0307 10.7907 6.19774 10.88 6.3796 10.9162C6.56146 10.9523 6.74996 10.9338 6.92127 10.8628C7.09257 10.7918 7.23899 10.6717 7.342 10.5175C7.44502 10.3633 7.5 10.1821 7.5 9.99667C7.5 9.74803 7.40123 9.50957 7.22541 9.33375C7.0496 9.15794 6.81114 9.05917 6.5625 9.05917ZM13.4375 9.05917C13.2521 9.05917 13.0708 9.11415 12.9167 9.21716C12.7625 9.32018 12.6423 9.4666 12.5714 9.6379C12.5004 9.80921 12.4818 9.99771 12.518 10.1796C12.5542 10.3614 12.6435 10.5285 12.7746 10.6596C12.9057 10.7907 13.0727 10.88 13.2546 10.9162C13.4365 10.9523 13.625 10.9338 13.7963 10.8628C13.9676 10.7918 14.114 10.6717 14.217 10.5175C14.32 10.3633 14.375 10.1821 14.375 9.99667C14.375 9.74803 14.2762 9.50957 14.1004 9.33375C13.9246 9.15794 13.6861 9.05917 13.4375 9.05917ZM18.125 9.99667C18.1253 11.3994 17.7624 12.7784 17.0717 13.9993C16.381 15.2202 15.3859 16.2415 14.1834 16.9637C12.9808 17.686 11.6118 18.0846 10.2095 18.1207C8.80719 18.1569 7.41942 17.8294 6.18125 17.1701L3.52109 18.0568C3.30085 18.1303 3.0645 18.1409 2.83854 18.0876C2.61257 18.0343 2.40593 17.9191 2.24176 17.7549C2.07759 17.5907 1.96239 17.3841 1.90906 17.1581C1.85573 16.9322 1.86639 16.6958 1.93984 16.4756L2.82656 13.8154C2.24699 12.7258 1.92328 11.5184 1.88 10.2849C1.83672 9.05148 2.075 7.82438 2.57677 6.69677C3.07854 5.56917 3.8306 4.57069 4.77587 3.77713C5.72114 2.98357 6.83477 2.41579 8.03224 2.11688C9.22971 1.81797 10.4795 1.7958 11.6868 2.05203C12.8942 2.30827 14.0272 2.83618 15.0001 3.59571C15.9729 4.35523 16.7599 5.3264 17.3014 6.43549C17.8428 7.54459 18.1245 8.76246 18.125 9.99667ZM16.875 9.99667C16.8747 8.94208 16.6318 7.90169 16.1651 6.956C15.6983 6.01031 15.0203 5.18466 14.1834 4.54294C13.3466 3.90122 12.3733 3.46063 11.3389 3.25525C10.3045 3.04987 9.23671 3.08521 8.21815 3.35854C7.1996 3.63187 6.25757 4.13585 5.46496 4.83151C4.67235 5.52716 4.0504 6.39583 3.64724 7.37031C3.24407 8.34479 3.07048 9.39896 3.13992 10.4513C3.20935 11.5036 3.51994 12.5258 4.04766 13.4389C4.09195 13.5155 4.11945 13.6007 4.12834 13.6888C4.13723 13.7769 4.1273 13.8658 4.09922 13.9498L3.125 16.8717L6.04688 15.8974C6.11052 15.8757 6.17729 15.8647 6.24453 15.8646C6.3543 15.8648 6.46208 15.8939 6.55703 15.949C7.60219 16.5537 8.78817 16.8725 9.99566 16.8732C11.2031 16.874 12.3895 16.5567 13.4354 15.9534C14.4814 15.35 15.3499 14.4818 15.9537 13.4361C16.5575 12.3904 16.8753 11.2042 16.875 9.99667Z" fill="#5700C7"/>
</svg>
