<svg width="51" height="51" viewBox="0 0 51 51" fill="none" xmlns="http://www.w3.org/2000/svg">
<rect width="51" height="51" rx="12" fill="url(#paint0_linear_472_71)"/>
<path d="M31.2727 19.7703C30.525 19.0151 29.6357 18.4149 28.6558 18.0038C27.6758 17.5928 26.6244 17.3791 25.5617 17.375H25.5C23.3451 17.375 21.2785 18.231 19.7548 19.7548C18.231 21.2785 17.375 23.3451 17.375 25.5V29.875C17.375 30.3723 17.5725 30.8492 17.9242 31.2008C18.2758 31.5525 18.7527 31.75 19.25 31.75H20.5C20.9973 31.75 21.4742 31.5525 21.8258 31.2008C22.1775 30.8492 22.375 30.3723 22.375 29.875V26.75C22.375 26.2527 22.1775 25.7758 21.8258 25.4242C21.4742 25.0725 20.9973 24.875 20.5 24.875H18.6531C18.7737 23.5718 19.2632 22.33 20.0642 21.2951C20.8653 20.2602 21.9448 19.475 23.1762 19.0317C24.4075 18.5884 25.7398 18.5052 27.0167 18.792C28.2936 19.0787 29.4624 19.7235 30.3859 20.6508C31.5148 21.7854 32.2091 23.2805 32.3477 24.875H30.5C30.0027 24.875 29.5258 25.0725 29.1742 25.4242C28.8225 25.7758 28.625 26.2527 28.625 26.75V29.875C28.625 30.3723 28.8225 30.8492 29.1742 31.2008C29.5258 31.5525 30.0027 31.75 30.5 31.75H32.375C32.375 32.2473 32.1775 32.7242 31.8258 33.0758C31.4742 33.4275 30.9973 33.625 30.5 33.625H26.125C25.9592 33.625 25.8003 33.6908 25.6831 33.8081C25.5658 33.9253 25.5 34.0842 25.5 34.25C25.5 34.4158 25.5658 34.5747 25.6831 34.6919C25.8003 34.8092 25.9592 34.875 26.125 34.875H30.5C31.3288 34.875 32.1237 34.5458 32.7097 33.9597C33.2958 33.3737 33.625 32.5788 33.625 31.75V25.5C33.6291 24.4372 33.4234 23.384 33.0197 22.4008C32.6161 21.4176 32.0224 20.5237 31.2727 19.7703ZM20.5 26.125C20.6658 26.125 20.8247 26.1908 20.9419 26.3081C21.0592 26.4253 21.125 26.5842 21.125 26.75V29.875C21.125 30.0408 21.0592 30.1997 20.9419 30.3169C20.8247 30.4342 20.6658 30.5 20.5 30.5H19.25C19.0842 30.5 18.9253 30.4342 18.8081 30.3169C18.6908 30.1997 18.625 30.0408 18.625 29.875V26.125H20.5ZM30.5 30.5C30.3342 30.5 30.1753 30.4342 30.0581 30.3169C29.9408 30.1997 29.875 30.0408 29.875 29.875V26.75C29.875 26.5842 29.9408 26.4253 30.0581 26.3081C30.1753 26.1908 30.3342 26.125 30.5 26.125H32.375V30.5H30.5Z" fill="white"/>
<defs>
<linearGradient id="paint0_linear_472_71" x1="19.3611" y1="-17.5667" x2="19.3611" y2="51" gradientUnits="userSpaceOnUse">
<stop stop-color="#5573E9"/>
<stop offset="1" stop-color="#5C10C2"/>
</linearGradient>
</defs>
</svg>
