<svg width="40" height="40" viewBox="0 0 40 40" fill="none" xmlns="http://www.w3.org/2000/svg">
<path d="M14.7671 20.9335C14.7705 22.0662 15.1103 23.1725 15.7435 24.1118C16.3766 25.051 17.2745 25.7811 18.3233 26.2092C19.3721 26.6372 20.5243 26.7441 21.6339 26.5162C22.7435 26.2883 23.7604 25.7359 24.5555 24.929C25.3506 24.1222 25.8881 23.0974 26.0997 21.9845C26.3114 20.8717 26.1876 19.7211 25.7442 18.6788C25.3008 17.6364 24.5578 16.7492 23.6093 16.1299C22.6608 15.5106 21.5498 15.187 20.4171 15.2002C19.6193 15.1944 18.8294 15.3592 18.1004 15.6835V13.3335H14.7671V20.1502M20.3171 22.4835C19.9875 22.4835 19.6652 22.3858 19.3911 22.2026C19.1171 22.0195 18.9034 21.7592 18.7773 21.4546C18.6511 21.1501 18.6181 20.815 18.6824 20.4917C18.7468 20.1684 18.9055 19.8714 19.1386 19.6383C19.3717 19.4052 19.6686 19.2465 19.9919 19.1822C20.3152 19.1179 20.6504 19.1509 20.9549 19.277C21.2594 19.4032 21.5197 19.6168 21.7029 19.8909C21.886 20.165 21.9838 20.4872 21.9838 20.8168C21.9838 21.2589 21.8082 21.6828 21.4956 21.9953C21.183 22.3079 20.7591 22.4835 20.3171 22.4835Z" fill="url(#paint0_linear_472_19)"/>
<mask id="mask0_472_19" style="mask-type:luminance" maskUnits="userSpaceOnUse" x="0" y="0" width="40" height="40">
<path d="M20 40C31.0457 40 40 31.0457 40 20C40 8.9543 31.0457 0 20 0C8.9543 0 0 8.9543 0 20C0 31.0457 8.9543 40 20 40Z" fill="white"/>
</mask>
<g mask="url(#mask0_472_19)">
<path d="M39.0498 13.879C37.9666 10.5391 36.0232 7.54332 33.415 5.1927C30.8068 2.84207 27.6258 1.21949 24.1917 0.488075C20.7576 -0.24334 17.1915 -0.0578094 13.8518 1.02601C10.5121 2.10983 7.51665 4.05374 5.16648 6.66233C0.166478 14.8123 3.23314 23.629 10.5331 28.5457L10.7998 27.429C9.02114 25.2052 8.10142 22.4161 8.20851 19.5705C8.3156 16.7249 9.44237 14.0128 11.3831 11.929L11.8665 11.429C20.4165 3.229 33.4331 3.21233 39.0498 13.879Z" fill="url(#paint1_linear_472_19)"/>
<path d="M39.0498 13.873C33.4331 3.20638 20.3998 3.22304 11.7998 11.4064C13.2672 10.0073 15.0681 9.00686 17.0313 8.50032C18.9945 7.99378 21.0546 7.99796 23.0157 8.51246C24.9768 9.02696 26.7737 10.0347 28.2354 11.4397C29.6971 12.8448 30.7749 14.6004 31.3665 16.5397C31.5366 17.1243 31.6647 17.7202 31.7498 18.323C33.8665 29.423 27.4498 39.9897 15.8498 39.5397C19.2769 40.2673 22.8349 40.082 26.1678 39.0022C29.5007 37.9224 32.4915 35.9861 34.8408 33.387C37.19 30.788 38.8154 27.6174 39.554 24.1927C40.2927 20.768 40.1188 17.2094 39.0498 13.873Z" fill="url(#paint2_linear_472_19)"/>
<path d="M31.7497 18.3298C31.832 18.8815 31.871 19.4387 31.8664 19.9965C31.8664 23.1437 30.6161 26.1621 28.3907 28.3875C26.1653 30.6129 23.1469 31.8632 19.9997 31.8632C19.0901 31.8688 18.1833 31.7624 17.2997 31.5465L16.633 31.3798L15.4164 30.9798L9.39969 32.9965L10.4164 28.5298C3.11635 23.5298 -0.0336453 14.7965 5.04969 6.64648C2.71217 9.25572 1.10099 12.4332 0.377431 15.8608C-0.346132 19.2884 -0.156701 22.8459 0.926763 26.1773C2.01023 29.5087 3.94972 32.4971 6.5511 34.8434C9.15249 37.1896 12.3245 38.8114 15.7497 39.5465H15.8497C27.4497 39.9965 33.8664 29.4465 31.7497 18.3298Z" fill="url(#paint3_linear_472_19)"/>
<path opacity="0.18" d="M39.0663 13.7439C40.8163 25.6939 30.283 33.3272 18.5163 31.8106C21.5477 32.2348 24.6244 31.4506 27.083 29.6272C29.1436 28.1292 30.6666 26.007 31.4262 23.5753C32.1857 21.1436 32.1413 18.5318 31.2996 16.1272C31.0928 15.5559 30.8478 14.9991 30.5663 14.4606C25.7163 4.24391 14.3496 -0.539419 5.21631 6.69391C7.2104 4.485 9.67229 2.74891 12.4225 1.61222C15.1727 0.475527 18.1419 -0.0331132 21.1137 0.123378C24.0854 0.279869 26.9848 1.09755 29.6004 2.5168C32.216 3.93605 34.4819 5.92111 36.233 8.32725C37.4454 9.97943 38.4007 11.8057 39.0663 13.7439Z" fill="url(#paint4_linear_472_19)" style="mix-blend-mode:overlay"/>
<path opacity="0.18" d="M5.13351 6.6651C14.5835 -0.818235 26.4835 4.48176 31.0502 15.4318C29.9049 12.5935 27.6902 10.3189 24.8835 9.09843C22.5542 8.07105 19.9569 7.81775 17.473 8.37573C14.9891 8.9337 12.7496 10.2735 11.0835 12.1984C10.6853 12.6647 10.3231 13.1605 10.0002 13.6818C3.56684 22.9818 5.18351 35.1818 15.9502 39.5318C14.5912 39.2651 13.2624 38.8631 11.9835 38.3318C9.57923 37.2694 7.40795 35.7435 5.59385 33.8413C3.77974 31.9391 2.35838 29.698 1.41105 27.2461C0.463731 24.7942 0.00902073 22.1796 0.0729292 19.5519C0.136838 16.9241 0.71811 14.3347 1.78351 11.9318C2.6241 10.0151 3.75392 8.23889 5.13351 6.6651Z" fill="url(#paint5_linear_472_19)" style="mix-blend-mode:overlay"/>
<path opacity="0.18" d="M14.1665 31.395L9.39983 33.0616L10.7165 27.545C10.3998 27.095 10.0998 26.645 9.79983 26.1616C9.96818 26.4223 10.1518 26.6727 10.3498 26.9117C10.0147 26.466 9.71917 25.992 9.4665 25.495C8.56123 23.767 8.09915 21.8412 8.12172 19.8906C8.14428 17.9399 8.65079 16.0254 9.59578 14.3188C10.5408 12.6122 11.8947 11.1669 13.536 10.1126C15.1774 9.05834 17.0548 8.42805 18.9998 8.27832H18.8165C7.53317 8.94499 -1.0835 17.745 2.14983 28.895L2.08317 28.5283C2.091 28.6393 2.091 28.7507 2.08317 28.8617C3.48378 31.6824 5.53074 34.1325 8.05739 36.0126C10.584 37.8926 13.519 39.1493 16.6232 39.6805C19.7274 40.2117 22.9132 40.0023 25.9212 39.0693C28.9292 38.1364 31.6744 36.5062 33.9332 34.3116C34.8557 33.4182 35.6875 32.4356 36.4165 31.3783C29.8332 38.0783 20.6498 37.1616 14.1665 31.395Z" fill="url(#paint6_linear_472_19)" style="mix-blend-mode:overlay"/>
</g>
<defs>
<linearGradient id="paint0_linear_472_19" x1="34.2671" y1="23.4668" x2="4.80042" y2="16.7668" gradientUnits="userSpaceOnUse">
<stop offset="0.25" stop-color="#5D00BB"/>
<stop offset="0.42" stop-color="#593DD4"/>
<stop offset="0.6" stop-color="#5577EB"/>
<stop offset="0.73" stop-color="#529BF9"/>
<stop offset="0.8" stop-color="#51A9FF"/>
<stop offset="0.96" stop-color="#C5E4FC"/>
</linearGradient>
<linearGradient id="paint1_linear_472_19" x1="4.64981" y1="22.879" x2="32.2831" y2="2.46232" gradientUnits="userSpaceOnUse">
<stop offset="0.04" stop-color="#5D00BB"/>
<stop offset="0.22" stop-color="#593DD4"/>
<stop offset="0.41" stop-color="#5577EB"/>
<stop offset="0.56" stop-color="#529BF9"/>
<stop offset="0.63" stop-color="#51A9FF"/>
<stop offset="1" stop-color="#C5E4FC"/>
</linearGradient>
<linearGradient id="paint2_linear_472_19" x1="25.8998" y1="6.93971" x2="25.8998" y2="39.623" gradientUnits="userSpaceOnUse">
<stop offset="0.04" stop-color="#5D00BB"/>
<stop offset="0.22" stop-color="#593DD4"/>
<stop offset="0.41" stop-color="#5577EB"/>
<stop offset="0.56" stop-color="#529BF9"/>
<stop offset="0.63" stop-color="#51A9FF"/>
<stop offset="1" stop-color="#C5E4FC"/>
</linearGradient>
<linearGradient id="paint3_linear_472_19" x1="27.6497" y1="23.1132" x2="-4.20031" y2="23.1132" gradientUnits="userSpaceOnUse">
<stop offset="0.04" stop-color="#5D00BB"/>
<stop offset="0.22" stop-color="#593DD4"/>
<stop offset="0.41" stop-color="#5577EB"/>
<stop offset="0.56" stop-color="#529BF9"/>
<stop offset="0.63" stop-color="#51A9FF"/>
<stop offset="1" stop-color="#C5E4FC"/>
</linearGradient>
<linearGradient id="paint4_linear_472_19" x1="32.5635" y1="27.2627" x2="13.2803" y2="0.789244" gradientUnits="userSpaceOnUse">
<stop offset="0.04" stop-color="#5D00BB"/>
<stop offset="0.22" stop-color="#593DD4"/>
<stop offset="0.41" stop-color="#5577EB"/>
<stop offset="0.56" stop-color="#529BF9"/>
<stop offset="0.63" stop-color="#51A9FF"/>
<stop offset="1" stop-color="#C5E4FC"/>
</linearGradient>
<linearGradient id="paint5_linear_472_19" x1="20.8303" y1="5.5811" x2="7.75701" y2="35.3229" gradientUnits="userSpaceOnUse">
<stop offset="0.04" stop-color="#5D00BB"/>
<stop offset="0.22" stop-color="#593DD4"/>
<stop offset="0.41" stop-color="#5577EB"/>
<stop offset="0.56" stop-color="#529BF9"/>
<stop offset="0.63" stop-color="#51A9FF"/>
<stop offset="1" stop-color="#C5E4FC"/>
</linearGradient>
<linearGradient id="paint6_linear_472_19" x1="18.9665" y1="9.49499" x2="18.9665" y2="39.6283" gradientUnits="userSpaceOnUse">
<stop offset="0.04" stop-color="#5D00BB"/>
<stop offset="0.22" stop-color="#593DD4"/>
<stop offset="0.41" stop-color="#5577EB"/>
<stop offset="0.56" stop-color="#529BF9"/>
<stop offset="0.63" stop-color="#51A9FF"/>
<stop offset="1" stop-color="#C5E4FC"/>
</linearGradient>
</defs>
</svg>
