<svg width="19" height="19" viewBox="0 0 19 19" fill="none" xmlns="http://www.w3.org/2000/svg">
<path d="M15.0395 13.3961C15.8299 12.7322 16.4613 11.8995 16.8872 10.9593C17.3131 10.019 17.5227 8.99524 17.5005 7.96329C17.4224 4.39219 14.5622 1.44766 10.9974 1.26016C10.0776 1.2101 9.1571 1.34538 8.29061 1.65798C7.42413 1.97058 6.6293 2.45412 5.95333 3.07988C5.27735 3.70565 4.73403 4.46087 4.35561 5.3007C3.9772 6.14053 3.77141 7.04784 3.75048 7.96875L1.99657 11.3422C1.98954 11.3563 1.98251 11.3703 1.97626 11.3844C1.85052 11.6775 1.84156 12.0075 1.95121 12.307C2.06086 12.6065 2.28084 12.8527 2.5661 12.9953L2.58563 13.0039L4.37548 13.8234V16.25C4.37548 16.5815 4.50717 16.8995 4.74159 17.1339C4.97601 17.3683 5.29396 17.5 5.62548 17.5H9.37548C9.54124 17.5 9.70021 17.4342 9.81742 17.3169C9.93463 17.1997 10.0005 17.0408 10.0005 16.875C10.0005 16.7092 9.93463 16.5503 9.81742 16.4331C9.70021 16.3159 9.54124 16.25 9.37548 16.25H5.62548V13.4227C5.62557 13.3029 5.59123 13.1856 5.52654 13.0847C5.46186 12.9839 5.36956 12.9038 5.26063 12.8539L3.12548 11.875L4.92782 8.41094C4.9748 8.32291 4.99973 8.22479 5.00048 8.125C5.0003 6.85027 5.4331 5.61327 6.22796 4.61671C7.02283 3.62015 8.13262 2.92312 9.37548 2.63985V3.85782C8.95847 4.00525 8.60701 4.29536 8.38321 4.67687C8.15941 5.05837 8.07769 5.50672 8.15248 5.94265C8.22728 6.37859 8.45377 6.77404 8.79194 7.05913C9.13011 7.34422 9.55817 7.50058 10.0005 7.50058C10.4428 7.50058 10.8708 7.34422 11.209 7.05913C11.5472 6.77404 11.7737 6.37859 11.8485 5.94265C11.9233 5.50672 11.8415 5.05837 11.6177 4.67687C11.3939 4.29536 11.0425 4.00525 10.6255 3.85782V2.50001C10.727 2.50001 10.8286 2.50001 10.9302 2.50782C12.0385 2.5713 13.1035 2.96017 13.992 3.62578C14.8805 4.29138 15.553 5.20418 15.9255 6.25H14.3755C14.2838 6.24997 14.1932 6.27011 14.1102 6.30899C14.0272 6.34788 13.9537 6.40455 13.895 6.475L11.902 8.86719C11.4864 8.71231 11.0294 8.70942 10.6118 8.85901C10.1942 9.00861 9.84298 9.30106 9.62023 9.68465C9.39748 10.0682 9.31756 10.5182 9.3946 10.9551C9.47165 11.3919 9.70069 11.7874 10.0412 12.0716C10.3818 12.3559 10.8118 12.5105 11.2554 12.5082C11.699 12.506 12.1274 12.3469 12.465 12.0592C12.8026 11.7714 13.0276 11.3736 13.1001 10.936C13.1726 10.4984 13.0881 10.0492 12.8614 9.66797L14.6684 7.5H16.2145C16.2333 7.6625 16.2447 7.82657 16.2489 7.99219C16.2684 8.88738 16.0747 9.77436 15.6837 10.5799C15.2928 11.3854 14.7158 12.0864 14.0005 12.625C13.9123 12.6911 13.8432 12.7793 13.8001 12.8807C13.7571 12.9821 13.7415 13.093 13.7552 13.2023L14.3802 18.2023C14.3992 18.3533 14.4726 18.4921 14.5867 18.5928C14.7007 18.6935 14.8476 18.7491 14.9997 18.7492C15.0258 18.7492 15.0519 18.7477 15.0778 18.7445C15.1593 18.7344 15.238 18.7083 15.3093 18.6677C15.3807 18.6272 15.4434 18.573 15.4938 18.5082C15.5443 18.4434 15.5814 18.3693 15.6032 18.2902C15.625 18.211 15.631 18.1283 15.6208 18.0469L15.0395 13.3961ZM10.0005 6.25C9.87686 6.25 9.75603 6.21335 9.65325 6.14467C9.55047 6.076 9.47036 5.97839 9.42305 5.86418C9.37575 5.74998 9.36337 5.62431 9.38749 5.50307C9.4116 5.38184 9.47113 5.27047 9.55854 5.18306C9.64594 5.09566 9.75731 5.03613 9.87855 5.01201C9.99978 4.9879 10.1255 5.00028 10.2397 5.04758C10.3539 5.09489 10.4515 5.17499 10.5201 5.27777C10.5888 5.38055 10.6255 5.50139 10.6255 5.62501C10.6255 5.79077 10.5596 5.94974 10.4424 6.06695C10.3252 6.18416 10.1662 6.25 10.0005 6.25ZM11.2505 11.25C11.1269 11.25 11.006 11.2133 10.9032 11.1447C10.8005 11.076 10.7204 10.9784 10.6731 10.8642C10.6257 10.75 10.6134 10.6243 10.6375 10.5031C10.6616 10.3818 10.7211 10.2705 10.8085 10.1831C10.8959 10.0957 11.0073 10.0361 11.1285 10.012C11.2498 9.9879 11.3755 10.0003 11.4897 10.0476C11.6039 10.0949 11.7015 10.175 11.7701 10.2778C11.8388 10.3806 11.8755 10.5014 11.8755 10.625C11.8755 10.7908 11.8096 10.9497 11.6924 11.0669C11.5752 11.1842 11.4162 11.25 11.2505 11.25Z" fill="#343434"/>
</svg>
