<svg width="20" height="20" viewBox="0 0 20 20" fill="none" xmlns="http://www.w3.org/2000/svg">
<path d="M13.7526 12.5025C13.3357 12.5024 12.923 12.5859 12.5389 12.7481C12.1549 12.9104 11.8073 13.148 11.5167 13.447L7.91513 11.1322C8.19843 10.4057 8.19843 9.5993 7.91513 8.87281L11.5167 6.55797C12.0577 7.11213 12.7851 7.44567 13.5581 7.49393C14.331 7.54219 15.0943 7.30173 15.7 6.81918C16.3057 6.33662 16.7107 5.64635 16.8364 4.88218C16.9621 4.11801 16.7995 3.3344 16.3803 2.68326C15.9611 2.03212 15.315 1.55985 14.5673 1.35801C13.8196 1.15617 13.0236 1.23913 12.3337 1.59083C11.6437 1.94252 11.1089 2.53788 10.8329 3.26148C10.557 3.98508 10.5596 4.78537 10.8401 5.50719L7.23857 7.82203C6.80487 7.37678 6.24824 7.07097 5.63985 6.94371C5.03145 6.81644 4.39892 6.8735 3.82312 7.10758C3.24731 7.34166 2.7544 7.74214 2.40738 8.25781C2.06036 8.77349 1.875 9.38094 1.875 10.0025C1.875 10.6241 2.06036 11.2315 2.40738 11.7472C2.7544 12.2629 3.24731 12.6633 3.82312 12.8974C4.39892 13.1315 5.03145 13.1886 5.63985 13.0613C6.24824 12.934 6.80487 12.6282 7.23857 12.183L10.8401 14.4978C10.5989 15.1201 10.5632 15.8033 10.7382 16.4473C10.9133 17.0914 11.29 17.6625 11.8132 18.0769C12.3363 18.4914 12.9784 18.7275 13.6454 18.7506C14.3125 18.7738 14.9694 18.5827 15.52 18.2055C16.0706 17.8283 16.4859 17.2847 16.7053 16.6544C16.9246 16.024 16.9363 15.34 16.7387 14.7025C16.5412 14.065 16.1447 13.5075 15.6074 13.1116C15.07 12.7157 14.4201 12.5023 13.7526 12.5025ZM13.7526 2.5025C14.1235 2.5025 14.486 2.61247 14.7943 2.8185C15.1027 3.02452 15.343 3.31736 15.4849 3.65997C15.6268 4.00258 15.6639 4.37958 15.5916 4.7433C15.5193 5.10701 15.3407 5.4411 15.0785 5.70333C14.8162 5.96555 14.4821 6.14413 14.1184 6.21647C13.7547 6.28882 13.3777 6.25169 13.0351 6.10978C12.6925 5.96786 12.3997 5.72754 12.1936 5.4192C11.9876 5.11085 11.8776 4.74834 11.8776 4.3775C11.8776 3.88022 12.0752 3.40331 12.4268 3.05168C12.7784 2.70005 13.2553 2.5025 13.7526 2.5025ZM5.00263 11.8775C4.63179 11.8775 4.26928 11.7675 3.96094 11.5615C3.65259 11.3555 3.41227 11.0626 3.27036 10.72C3.12844 10.3774 3.09131 10.0004 3.16366 9.63671C3.236 9.27299 3.41458 8.9389 3.6768 8.67668C3.93903 8.41445 4.27312 8.23588 4.63683 8.16353C5.00055 8.09118 5.37755 8.12831 5.72016 8.27023C6.06277 8.41214 6.35561 8.65247 6.56163 8.96081C6.76766 9.26915 6.87763 9.63166 6.87763 10.0025C6.87763 10.4998 6.68009 10.9767 6.32845 11.3283C5.97682 11.68 5.49991 11.8775 5.00263 11.8775ZM13.7526 17.5025C13.3818 17.5025 13.0193 17.3925 12.7109 17.1865C12.4026 16.9805 12.1623 16.6876 12.0204 16.345C11.8784 16.0024 11.8413 15.6254 11.9137 15.2617C11.986 14.898 12.1646 14.5639 12.4268 14.3017C12.689 14.0395 13.0231 13.8609 13.3868 13.7885C13.7505 13.7162 14.1276 13.7533 14.4702 13.8952C14.8128 14.0371 15.1056 14.2775 15.3116 14.5858C15.5177 14.8941 15.6276 15.2567 15.6276 15.6275C15.6276 16.1248 15.4301 16.6017 15.0785 16.9533C14.7268 17.305 14.2499 17.5025 13.7526 17.5025Z" fill="#343434"/>
</svg>
