<svg width="20" height="20" viewBox="0 0 20 20" fill="none" xmlns="http://www.w3.org/2000/svg">
<path d="M9.1627 12.3394C10.0004 11.7817 10.6363 10.9693 10.9765 10.0223C11.3167 9.0752 11.3431 8.0438 11.0518 7.08057C10.7605 6.11735 10.167 5.27344 9.35897 4.67364C8.55095 4.07384 7.57135 3.75 6.56504 3.75C5.55873 3.75 4.57914 4.07384 3.77111 4.67364C2.96309 5.27344 2.36954 6.11735 2.07824 7.08057C1.78693 8.0438 1.81334 9.0752 2.15356 10.0223C2.49377 10.9693 3.12973 11.7817 3.96738 12.3394C2.45214 12.8979 1.15809 13.9313 0.278322 15.2855C0.232085 15.3542 0.199968 15.4314 0.183839 15.5127C0.16771 15.5939 0.167891 15.6776 0.18437 15.7587C0.20085 15.8399 0.2333 15.917 0.279834 15.9855C0.326368 16.054 0.386058 16.1126 0.455434 16.1579C0.52481 16.2031 0.602488 16.2341 0.683954 16.2491C0.765419 16.2641 0.849047 16.2627 0.929976 16.2451C1.0109 16.2274 1.08752 16.1939 1.15537 16.1464C1.22322 16.0988 1.28094 16.0383 1.3252 15.9683C1.89269 15.0955 2.66923 14.3782 3.58429 13.8817C4.49935 13.3852 5.52395 13.1251 6.56504 13.1251C7.60613 13.1251 8.63073 13.3852 9.54579 13.8817C10.4609 14.3782 11.2374 15.0955 11.8049 15.9683C11.8966 16.1046 12.0382 16.1992 12.1991 16.2319C12.36 16.2646 12.5273 16.2326 12.6649 16.1429C12.8024 16.0532 12.8991 15.913 12.9341 15.7525C12.9691 15.5921 12.9395 15.4243 12.8518 15.2855C11.972 13.9313 10.6779 12.8979 9.1627 12.3394ZM3.12754 8.4394C3.12754 7.75953 3.32915 7.09492 3.70686 6.52963C4.08458 5.96433 4.62145 5.52374 5.24957 5.26357C5.87769 5.00339 6.56885 4.93532 7.23566 5.06795C7.90247 5.20059 8.51498 5.52798 8.99572 6.00872C9.47646 6.48946 9.80385 7.10197 9.93649 7.76878C10.0691 8.43559 10.0011 9.12676 9.74088 9.75488C9.4807 10.383 9.04011 10.9199 8.47481 11.2976C7.90952 11.6753 7.24491 11.8769 6.56504 11.8769C5.65368 11.8759 4.77994 11.5134 4.1355 10.8689C3.49107 10.2245 3.12858 9.35077 3.12754 8.4394ZM19.5447 16.1503C19.4059 16.2409 19.2368 16.2725 19.0746 16.2384C18.9124 16.2043 18.7704 16.1071 18.6799 15.9683C18.1131 15.095 17.3366 14.3774 16.4214 13.8811C15.5061 13.3848 14.4812 13.1255 13.44 13.1269C13.2743 13.1269 13.1153 13.0611 12.9981 12.9438C12.8809 12.8266 12.815 12.6677 12.815 12.5019C12.815 12.3361 12.8809 12.1772 12.9981 12.06C13.1153 11.9427 13.2743 11.8769 13.44 11.8769C13.9463 11.8764 14.4461 11.7641 14.9039 11.5481C15.3617 11.332 15.7662 11.0175 16.0883 10.627C16.4105 10.2366 16.6424 9.77974 16.7676 9.28923C16.8927 8.79871 16.908 8.28661 16.8123 7.78952C16.7166 7.29242 16.5123 6.8226 16.214 6.41362C15.9156 6.00464 15.5307 5.6666 15.0865 5.42365C14.6424 5.1807 14.1501 5.03884 13.6448 5.0082C13.1395 4.97757 12.6337 5.05892 12.1635 5.24643C12.0868 5.27958 12.0043 5.29702 11.9208 5.29772C11.8372 5.29843 11.7544 5.28238 11.6772 5.25054C11.6 5.2187 11.5299 5.1717 11.4712 5.11233C11.4124 5.05296 11.3662 4.98241 11.3352 4.90486C11.3042 4.82731 11.289 4.74433 11.2906 4.66082C11.2922 4.57731 11.3105 4.49497 11.3445 4.41866C11.3784 4.34235 11.4273 4.27362 11.4883 4.21653C11.5493 4.15944 11.621 4.11515 11.6994 4.08628C12.7756 3.6571 13.9725 3.64165 15.0594 4.04292C16.1462 4.44419 17.046 5.23374 17.585 6.25926C18.1241 7.28477 18.2643 8.47359 17.9786 9.59637C17.6928 10.7191 17.0014 11.6963 16.0377 12.3394C17.5529 12.8979 18.847 13.9313 19.7268 15.2855C19.8173 15.4243 19.849 15.5934 19.8148 15.7556C19.7807 15.9178 19.6835 16.0598 19.5447 16.1503Z" fill="black"/>
</svg>
