<svg width="44" height="44" viewBox="0 0 44 44" fill="none" xmlns="http://www.w3.org/2000/svg">
<rect width="44" height="44" rx="12" fill="url(#paint0_linear_471_528)"/>
<path d="M26.5 17.5C26.5 17.3011 26.579 17.1103 26.7197 16.9697C26.8603 16.829 27.0511 16.75 27.25 16.75H30.25C30.4489 16.75 30.6397 16.829 30.7803 16.9697C30.921 17.1103 31 17.3011 31 17.5C31 17.6989 30.921 17.8897 30.7803 18.0303C30.6397 18.171 30.4489 18.25 30.25 18.25H27.25C27.0511 18.25 26.8603 18.171 26.7197 18.0303C26.579 17.8897 26.5 17.6989 26.5 17.5ZM13.75 18.25H23.5V19.75C23.5 19.9489 23.579 20.1397 23.7197 20.2803C23.8603 20.421 24.0511 20.5 24.25 20.5C24.4489 20.5 24.6397 20.421 24.7803 20.2803C24.921 20.1397 25 19.9489 25 19.75V15.25C25 15.0511 24.921 14.8603 24.7803 14.7197C24.6397 14.579 24.4489 14.5 24.25 14.5C24.0511 14.5 23.8603 14.579 23.7197 14.7197C23.579 14.8603 23.5 15.0511 23.5 15.25V16.75H13.75C13.5511 16.75 13.3603 16.829 13.2197 16.9697C13.079 17.1103 13 17.3011 13 17.5C13 17.6989 13.079 17.8897 13.2197 18.0303C13.3603 18.171 13.5511 18.25 13.75 18.25ZM30.25 25.75H21.25C21.0511 25.75 20.8603 25.829 20.7197 25.9697C20.579 26.1103 20.5 26.3011 20.5 26.5C20.5 26.6989 20.579 26.8897 20.7197 27.0303C20.8603 27.171 21.0511 27.25 21.25 27.25H30.25C30.4489 27.25 30.6397 27.171 30.7803 27.0303C30.921 26.8897 31 26.6989 31 26.5C31 26.3011 30.921 26.1103 30.7803 25.9697C30.6397 25.829 30.4489 25.75 30.25 25.75ZM18.25 23.5C18.0511 23.5 17.8603 23.579 17.7197 23.7197C17.579 23.8603 17.5 24.0511 17.5 24.25V25.75H13.75C13.5511 25.75 13.3603 25.829 13.2197 25.9697C13.079 26.1103 13 26.3011 13 26.5C13 26.6989 13.079 26.8897 13.2197 27.0303C13.3603 27.171 13.5511 27.25 13.75 27.25H17.5V28.75C17.5 28.9489 17.579 29.1397 17.7197 29.2803C17.8603 29.421 18.0511 29.5 18.25 29.5C18.4489 29.5 18.6397 29.421 18.7803 29.2803C18.921 29.1397 19 28.9489 19 28.75V24.25C19 24.0511 18.921 23.8603 18.7803 23.7197C18.6397 23.579 18.4489 23.5 18.25 23.5Z" fill="white"/>
<defs>
<linearGradient id="paint0_linear_471_528" x1="16.7037" y1="-15.1556" x2="16.7037" y2="44" gradientUnits="userSpaceOnUse">
<stop stop-color="#5573E9"/>
<stop offset="1" stop-color="#5C10C2"/>
</linearGradient>
</defs>
</svg>
