<svg width="44" height="44" viewBox="0 0 44 44" fill="none" xmlns="http://www.w3.org/2000/svg">
<path d="M26.8535 26.146C26.8999 26.1925 26.9368 26.2476 26.9619 26.3083C26.9871 26.369 27 26.4341 27 26.4997C27 26.5654 26.9871 26.6305 26.9619 26.6912C26.9368 26.7519 26.8999 26.807 26.8535 26.8535C26.807 26.8999 26.7519 26.9368 26.6912 26.9619C26.6305 26.9871 26.5654 27 26.4997 27C26.4341 27 26.369 26.9871 26.3083 26.9619C26.2476 26.9368 26.1925 26.8999 26.146 26.8535L22 22.7068L17.854 26.8535C17.7602 26.9473 17.6329 27 17.5003 27C17.3676 27 17.2403 26.9473 17.1465 26.8535C17.0527 26.7597 17 26.6324 17 26.4997C17 26.3671 17.0527 26.2398 17.1465 26.146L21.2932 22L17.1465 17.854C17.0527 17.7602 17 17.6329 17 17.5003C17 17.3676 17.0527 17.2403 17.1465 17.1465C17.2403 17.0527 17.3676 17 17.5003 17C17.6329 17 17.7602 17.0527 17.854 17.1465L22 21.2932L26.146 17.1465C26.2398 17.0527 26.3671 17 26.4997 17C26.6324 17 26.7597 17.0527 26.8535 17.1465C26.9473 17.2403 27 17.3676 27 17.5003C27 17.6329 26.9473 17.7602 26.8535 17.854L22.7068 22L26.8535 26.146Z" fill="#5A5A5A"/>
</svg>
