<svg width="28" height="28" viewBox="0 0 28 28" fill="none" xmlns="http://www.w3.org/2000/svg">
<path d="M22.75 3.5H20.125V2.625C20.125 2.39294 20.0328 2.17038 19.8687 2.00628C19.7046 1.84219 19.4821 1.75 19.25 1.75C19.0179 1.75 18.7954 1.84219 18.6313 2.00628C18.4672 2.17038 18.375 2.39294 18.375 2.625V3.5H9.625V2.625C9.625 2.39294 9.53281 2.17038 9.36872 2.00628C9.20462 1.84219 8.98206 1.75 8.75 1.75C8.51794 1.75 8.29538 1.84219 8.13128 2.00628C7.96719 2.17038 7.875 2.39294 7.875 2.625V3.5H5.25C4.78587 3.5 4.34075 3.68437 4.01256 4.01256C3.68437 4.34075 3.5 4.78587 3.5 5.25V22.75C3.5 23.2141 3.68437 23.6592 4.01256 23.9874C4.34075 24.3156 4.78587 24.5 5.25 24.5H22.75C23.2141 24.5 23.6592 24.3156 23.9874 23.9874C24.3156 23.6592 24.5 23.2141 24.5 22.75V5.25C24.5 4.78587 24.3156 4.34075 23.9874 4.01256C23.6592 3.68437 23.2141 3.5 22.75 3.5ZM7.875 5.25V6.125C7.875 6.35706 7.96719 6.57962 8.13128 6.74372C8.29538 6.90781 8.51794 7 8.75 7C8.98206 7 9.20462 6.90781 9.36872 6.74372C9.53281 6.57962 9.625 6.35706 9.625 6.125V5.25H18.375V6.125C18.375 6.35706 18.4672 6.57962 18.6313 6.74372C18.7954 6.90781 19.0179 7 19.25 7C19.4821 7 19.7046 6.90781 19.8687 6.74372C20.0328 6.57962 20.125 6.35706 20.125 6.125V5.25H22.75V8.75H5.25V5.25H7.875ZM22.75 22.75H5.25V10.5H22.75V22.75ZM17.2441 14.6191L15.237 16.625L17.2441 18.6309C17.3254 18.7122 17.3898 18.8087 17.4338 18.915C17.4778 19.0212 17.5005 19.135 17.5005 19.25C17.5005 19.365 17.4778 19.4788 17.4338 19.585C17.3898 19.6913 17.3254 19.7878 17.2441 19.8691C17.1628 19.9504 17.0663 20.0148 16.96 20.0588C16.8538 20.1028 16.74 20.1255 16.625 20.1255C16.51 20.1255 16.3962 20.1028 16.29 20.0588C16.1837 20.0148 16.0872 19.9504 16.0059 19.8691L14 17.862L11.9941 19.8691C11.9128 19.9504 11.8163 20.0148 11.71 20.0588C11.6038 20.1028 11.49 20.1255 11.375 20.1255C11.26 20.1255 11.1462 20.1028 11.04 20.0588C10.9337 20.0148 10.8372 19.9504 10.7559 19.8691C10.6746 19.7878 10.6102 19.6913 10.5662 19.585C10.5222 19.4788 10.4995 19.365 10.4995 19.25C10.4995 19.135 10.5222 19.0212 10.5662 18.915C10.6102 18.8087 10.6746 18.7122 10.7559 18.6309L12.763 16.625L10.7559 14.6191C10.5918 14.4549 10.4995 14.2322 10.4995 14C10.4995 13.7678 10.5918 13.5451 10.7559 13.3809C10.9201 13.2168 11.1428 13.1245 11.375 13.1245C11.6072 13.1245 11.8299 13.2168 11.9941 13.3809L14 15.388L16.0059 13.3809C16.0872 13.2996 16.1837 13.2352 16.29 13.1912C16.3962 13.1472 16.51 13.1245 16.625 13.1245C16.74 13.1245 16.8538 13.1472 16.96 13.1912C17.0663 13.2352 17.1628 13.2996 17.2441 13.3809C17.3254 13.4622 17.3898 13.5587 17.4338 13.665C17.4778 13.7712 17.5005 13.885 17.5005 14C17.5005 14.115 17.4778 14.2288 17.4338 14.335C17.3898 14.4413 17.3254 14.5378 17.2441 14.6191Z" fill="#5C19C6"/>
</svg>
