<svg width="28" height="28" viewBox="0 0 28 28" fill="none" xmlns="http://www.w3.org/2000/svg">
<path d="M14.0025 2.625C12.0386 2.62457 10.1081 3.1326 8.39882 4.09963C6.68955 5.06665 5.25975 6.45974 4.24861 8.1433C3.23746 9.82685 2.67942 11.7435 2.62878 13.7067C2.57815 15.6699 3.03665 17.6128 3.95967 19.3463L2.71826 23.0705C2.61543 23.3788 2.60051 23.7097 2.67517 24.026C2.74982 24.3424 2.91111 24.6317 3.14095 24.8615C3.37078 25.0914 3.66009 25.2527 3.97643 25.3273C4.29278 25.402 4.62367 25.387 4.93201 25.2842L8.65623 24.0428C10.1818 24.8542 11.8721 25.3074 13.5989 25.368C15.3257 25.4286 17.0437 25.095 18.6223 24.3925C20.201 23.69 21.5989 22.6372 22.7098 21.3138C23.8208 19.9904 24.6157 18.4313 25.0342 16.7549C25.4527 15.0784 25.4837 13.3287 25.125 11.6384C24.7662 9.94817 24.0272 8.36187 22.9638 6.99991C21.9005 5.63795 20.5409 4.53613 18.9881 3.77809C17.4354 3.02005 15.7304 2.62571 14.0025 2.625ZM14.0025 23.625C12.3104 23.6262 10.6481 23.1806 9.18342 22.3333C9.07618 22.2711 8.95696 22.2324 8.83364 22.2198C8.71032 22.2071 8.58573 22.2208 8.46811 22.26L4.37748 23.625L5.74139 19.5344C5.78071 19.4168 5.7946 19.2923 5.78216 19.169C5.76971 19.0456 5.73121 18.9264 5.6692 18.8191C4.60823 16.9847 4.18226 14.8516 4.45736 12.7505C4.73246 10.6493 5.69326 8.69774 7.1907 7.1984C8.68815 5.69906 10.6385 4.7358 12.7393 4.45804C14.8401 4.18029 16.9738 4.60357 18.8094 5.66222C20.6451 6.72087 22.0801 8.35571 22.8918 10.3131C23.7035 12.2706 23.8465 14.4411 23.2987 16.4882C22.7509 18.5352 21.5429 20.3442 19.8621 21.6346C18.1812 22.925 16.1215 23.6247 14.0025 23.625Z" fill="#5C19C6"/>
<path d="M19.4345 11.5406C19.3904 11.4344 19.3259 11.3379 19.2445 11.2566C19.1633 11.1753 19.0668 11.1107 18.9606 11.0667C18.8543 11.0227 18.7405 11 18.6255 11C18.5105 11 18.3966 11.0227 18.2904 11.0667C18.1842 11.1107 18.0877 11.1753 18.0064 11.2566L12.5005 16.7637L10.4945 14.7566C10.3304 14.5924 10.1077 14.5002 9.87549 14.5002C9.64329 14.5002 9.42061 14.5924 9.25642 14.7566C9.09224 14.9208 9 15.1435 9 15.3757C9 15.6079 9.09224 15.8306 9.25642 15.9948L11.8814 18.6198C11.9627 18.7011 12.0592 18.7656 12.1654 18.8097C12.2716 18.8537 12.3855 18.8764 12.5005 18.8764C12.6155 18.8764 12.7293 18.8537 12.8356 18.8097C12.9418 18.7656 13.0383 18.7011 13.1195 18.6198L19.2445 12.4948C19.3259 12.4135 19.3904 12.317 19.4345 12.2108C19.4785 12.1045 19.5012 11.9907 19.5012 11.8757C19.5012 11.7607 19.4785 11.6468 19.4345 11.5406Z" fill="#5C19C6"/>
</svg>
