<svg width="28" height="28" viewBox="0 0 28 28" fill="none" xmlns="http://www.w3.org/2000/svg">
<path d="M18.375 12.2531C18.375 12.4852 18.2828 12.7078 18.1187 12.8719C17.9546 13.036 17.7321 13.1281 17.5 13.1281H10.5C10.2679 13.1281 10.0454 13.036 9.88128 12.8719C9.71719 12.7078 9.625 12.4852 9.625 12.2531C9.625 12.0211 9.71719 11.7985 9.88128 11.6344C10.0454 11.4703 10.2679 11.3781 10.5 11.3781H17.5C17.7321 11.3781 17.9546 11.4703 18.1187 11.6344C18.2828 11.7985 18.375 12.0211 18.375 12.2531ZM17.5 14.8781H10.5C10.2679 14.8781 10.0454 14.9703 9.88128 15.1344C9.71719 15.2985 9.625 15.5211 9.625 15.7531C9.625 15.9852 9.71719 16.2078 9.88128 16.3719C10.0454 16.536 10.2679 16.6281 10.5 16.6281H17.5C17.7321 16.6281 17.9546 16.536 18.1187 16.3719C18.2828 16.2078 18.375 15.9852 18.375 15.7531C18.375 15.5211 18.2828 15.2985 18.1187 15.1344C17.9546 14.9703 17.7321 14.8781 17.5 14.8781ZM25.375 14.0031C25.3754 15.967 24.8674 17.8975 23.9004 19.6068C22.9333 21.3161 21.5403 22.7459 19.8567 23.757C18.1732 24.7682 16.2565 25.3262 14.2933 25.3769C12.3301 25.4275 10.3872 24.969 8.65375 24.046L4.92953 25.2874C4.62119 25.3902 4.2903 25.4051 3.97395 25.3305C3.6576 25.2558 3.3683 25.0945 3.13846 24.8647C2.90863 24.6348 2.74734 24.3455 2.67268 24.0292C2.59803 23.7128 2.61295 23.382 2.71578 23.0736L3.95719 19.3494C3.14579 17.8239 2.69259 16.1335 2.632 14.4067C2.5714 12.6799 2.90501 10.9619 3.60748 9.38329C4.30996 7.80464 5.36284 6.40678 6.68622 5.29579C8.0096 4.18481 9.56869 3.38992 11.2451 2.97145C12.9216 2.55298 14.6713 2.52193 16.3616 2.88066C18.0518 3.23939 19.6381 3.97847 21.0001 5.0418C22.3621 6.10513 23.4639 7.46477 24.2219 9.0175C24.9799 10.5702 25.3743 12.2753 25.375 14.0031ZM23.625 14.0031C23.6246 12.5267 23.2845 11.0702 22.6311 9.74621C21.9777 8.42224 21.0285 7.26634 19.8568 6.36793C18.6852 5.46952 17.3226 4.85269 15.8744 4.56516C14.4263 4.27763 12.9314 4.32711 11.5054 4.70977C10.0794 5.09243 8.7606 5.79801 7.65095 6.77192C6.54129 7.74583 5.67057 8.96197 5.10613 10.3262C4.54169 11.6905 4.29868 13.1664 4.39588 14.6396C4.49309 16.1128 4.92792 17.5439 5.66672 18.8222C5.72873 18.9295 5.76723 19.0488 5.77967 19.1721C5.79212 19.2954 5.77822 19.42 5.73891 19.5375L4.375 23.6281L8.46562 22.2642C8.55472 22.2339 8.64821 22.2183 8.74234 22.2183C8.89602 22.2186 9.04691 22.2593 9.17984 22.3364C10.6431 23.183 12.3034 23.6293 13.9939 23.6304C15.6844 23.6314 17.3453 23.1872 18.8096 22.3425C20.2739 21.4978 21.4899 20.2823 22.3352 18.8183C23.1805 17.3544 23.6254 15.6936 23.625 14.0031Z" fill="#5C19C6"/>
</svg>
