<svg width="28" height="28" viewBox="0 0 28 28" fill="none" xmlns="http://www.w3.org/2000/svg">
<path d="M26.25 14.0002C26.25 14.2323 26.1578 14.4549 25.9937 14.6189C25.8296 14.783 25.6071 14.8752 25.375 14.8752H22.4153L18.2831 23.1418C18.2104 23.2872 18.0986 23.4094 17.9603 23.4948C17.8219 23.5802 17.6626 23.6253 17.5 23.6252H17.4563C17.2865 23.6168 17.1229 23.5592 16.9854 23.4594C16.8479 23.3595 16.7424 23.2218 16.6819 23.063L10.4289 6.64585L6.92125 14.3623C6.85176 14.5152 6.73973 14.6448 6.59854 14.7358C6.45734 14.8268 6.29296 14.8752 6.125 14.8752H2.625C2.39294 14.8752 2.17038 14.783 2.00628 14.6189C1.84219 14.4549 1.75 14.2323 1.75 14.0002C1.75 13.7682 1.84219 13.5456 2.00628 13.3815C2.17038 13.2174 2.39294 13.1252 2.625 13.1252H5.56172L9.70375 4.0132C9.77516 3.85596 9.8915 3.72336 10.0381 3.63211C10.1847 3.54087 10.3551 3.49505 10.5277 3.50042C10.7003 3.5058 10.8675 3.56214 11.0081 3.66234C11.1488 3.76254 11.2566 3.90213 11.3181 4.06351L17.6083 20.5791L21.0919 13.6109C21.1643 13.4651 21.276 13.3424 21.4143 13.2566C21.5527 13.1708 21.7122 13.1253 21.875 13.1252H25.375C25.6071 13.1252 25.8296 13.2174 25.9937 13.3815C26.1578 13.5456 26.25 13.7682 26.25 14.0002Z" fill="#5C19C6"/>
</svg>
