<svg width="28" height="28" viewBox="0 0 28 28" fill="none" xmlns="http://www.w3.org/2000/svg">
<path d="M24.2675 9.09948C25.4817 11.6389 25.7122 14.5382 24.9145 17.2376C24.1168 19.937 22.3475 22.2453 19.948 23.7169C17.5485 25.1885 14.6889 25.7191 11.9212 25.2064C9.15349 24.6936 6.67381 23.1738 4.96074 20.9403C3.24768 18.7068 2.42267 15.9179 2.64495 13.1118C2.86723 10.3058 4.12103 7.68156 6.16438 5.7456C8.20773 3.80965 10.8958 2.6992 13.7097 2.62859C16.5236 2.55797 19.264 3.53219 21.4019 5.36323L23.8814 2.8826C24.0456 2.71842 24.2683 2.62618 24.5005 2.62618C24.7326 2.62618 24.9553 2.71842 25.1195 2.8826C25.2837 3.04679 25.3759 3.26947 25.3759 3.50167C25.3759 3.73386 25.2837 3.95654 25.1195 4.12073L14.6195 14.6207C14.4553 14.7849 14.2326 14.8772 14.0005 14.8772C13.7683 14.8772 13.5456 14.7849 13.3814 14.6207C13.2172 14.4565 13.125 14.2339 13.125 14.0017C13.125 13.7695 13.2172 13.5468 13.3814 13.3826L16.4133 10.3507C15.5916 9.8073 14.6106 9.55709 13.629 9.64061C12.6474 9.72412 11.7227 10.1365 11.0047 10.8109C10.2866 11.4853 9.8172 12.3823 9.67239 13.3568C9.52759 14.3312 9.71588 15.326 10.2068 16.18C10.6977 17.0341 11.4625 17.6975 12.3774 18.0629C13.2923 18.4282 14.3037 18.4741 15.2478 18.1931C16.192 17.9121 17.0138 17.3206 17.58 16.5145C18.1462 15.7084 18.4238 14.7347 18.3678 13.7512C18.3613 13.6363 18.3776 13.5212 18.4156 13.4126C18.4536 13.304 18.5126 13.2039 18.5893 13.1181C18.666 13.0322 18.7588 12.9624 18.8625 12.9124C18.9662 12.8625 19.0787 12.8334 19.1936 12.827C19.4256 12.8139 19.6534 12.8936 19.8267 13.0485C19.9125 13.1251 19.9824 13.218 20.0324 13.3217C20.0823 13.4253 20.1113 13.5379 20.1178 13.6528C20.1976 15.0449 19.8 16.4225 18.9907 17.558C18.1814 18.6935 17.0089 19.5189 15.667 19.8978C14.325 20.2766 12.894 20.1862 11.6104 19.6416C10.3268 19.0969 9.26741 18.1306 8.60741 16.9023C7.9474 15.674 7.72626 14.2573 7.98052 12.8863C8.23478 11.5153 8.94923 10.2721 10.0058 9.36212C11.0623 8.45217 12.3978 7.92997 13.7913 7.88182C15.1849 7.83366 16.5531 8.26245 17.67 9.09729L20.1583 6.60901C18.3348 5.09504 16.0162 4.30816 13.6479 4.3995C11.2796 4.49084 9.0285 5.45397 7.32703 7.10389C5.62556 8.75382 4.59366 10.9742 4.42953 13.3386C4.2654 15.703 4.9806 18.0446 6.43778 19.9138C7.89496 21.783 9.99136 23.048 12.3243 23.4657C14.6573 23.8834 17.0624 23.4244 19.0776 22.1769C21.0928 20.9294 22.576 18.9813 23.2424 16.7069C23.9088 14.4324 23.7114 11.9919 22.6881 9.85417C22.588 9.64473 22.5753 9.40411 22.6526 9.18525C22.7299 8.96639 22.891 8.78721 23.1005 8.68713C23.3099 8.58706 23.5505 8.57428 23.7694 8.65161C23.9882 8.72894 24.1674 8.89004 24.2675 9.09948Z" fill="#5C19C6"/>
</svg>
