<svg width="16" height="16" viewBox="0 0 16 16" fill="none" xmlns="http://www.w3.org/2000/svg">
<path d="M13.354 7.35403L8.35403 12.354C8.30759 12.4005 8.25245 12.4374 8.19175 12.4626C8.13105 12.4877 8.06599 12.5007 8.00028 12.5007C7.93457 12.5007 7.86951 12.4877 7.80881 12.4626C7.74811 12.4374 7.69296 12.4005 7.64653 12.354L2.64653 7.35403C2.55271 7.26021 2.5 7.13296 2.5 7.00028C2.5 6.8676 2.55271 6.74035 2.64653 6.64653C2.74035 6.55271 2.8676 6.5 3.00028 6.5C3.13296 6.5 3.26021 6.55271 3.35403 6.64653L8.00028 11.2934L12.6465 6.64653C12.693 6.60007 12.7481 6.56322 12.8088 6.53808C12.8695 6.51294 12.9346 6.5 13.0003 6.5C13.066 6.5 13.131 6.51294 13.1917 6.53808C13.2524 6.56322 13.3076 6.60007 13.354 6.64653C13.4005 6.69298 13.4373 6.74813 13.4625 6.80883C13.4876 6.86953 13.5006 6.93458 13.5006 7.00028C13.5006 7.06598 13.4876 7.13103 13.4625 7.19173C13.4373 7.25242 13.4005 7.30757 13.354 7.35403Z" fill="#343434"/>
</svg>
